<svg xmlns="http://www.w3.org/2000/svg" width="128" height="128" viewBox="0 0 128 128">
  <title>LIGHT BULB</title>
  <g>
    <g>
      <path d="M101.8,39.544A37.8,37.8,0,0,0,64.4,1.749c-20.107-.208-37.66,16.686-38.183,36.788A37.77,37.77,0,0,0,44.675,72.025a.174.174,0,0,1,.085.15v9.677H83.24V72.076A37.772,37.772,0,0,0,101.8,39.544Z" fill="#f3f5f9"/>
      <path d="M87.1,25.874a1.746,1.746,0,0,1-1.454-.774A26.083,26.083,0,0,0,64.278,13.5,1.75,1.75,0,0,1,64.3,10h.019a29.589,29.589,0,0,1,24.233,13.15A1.75,1.75,0,0,1,87.1,25.874Z" fill="#e1e6f0"/>
      <path d="M76.751,41.656H69.727a1.751,1.751,0,0,0-1.75,1.75V52.58H60.022V43.406a1.75,1.75,0,0,0-1.75-1.75H51.248a6.758,6.758,0,0,0-6.75,6.75v.924a6.758,6.758,0,0,0,6.75,6.75h5.274V81.852a1.75,1.75,0,0,0,3.5,0V56.08h7.955V81.852a1.75,1.75,0,0,0,3.5,0V56.08h5.274a6.757,6.757,0,0,0,6.75-6.75v-.924A6.758,6.758,0,0,0,76.751,41.656ZM56.522,52.58H51.248A3.254,3.254,0,0,1,48,49.33v-.924a3.254,3.254,0,0,1,3.25-3.25h5.274ZM80,49.33a3.254,3.254,0,0,1-3.25,3.25H71.477V45.156h5.274A3.254,3.254,0,0,1,80,48.406Z" fill="#ff7f40"/>
      <path d="M83.961,92.344H44.038A5.246,5.246,0,0,1,38.792,87.1h0a5.246,5.246,0,0,1,5.246-5.246H83.961A5.246,5.246,0,0,1,89.208,87.1h0A5.247,5.247,0,0,1,83.961,92.344Z" fill="#4d5e80"/>
      <rect x="38.792" y="92.344" width="50.415" height="10.492" rx="5.246" fill="#3d4566"/>
      <path d="M83.961,113.328H44.038a5.246,5.246,0,0,1-5.246-5.246h0a5.246,5.246,0,0,1,5.246-5.246H83.961a5.247,5.247,0,0,1,5.247,5.246h0A5.246,5.246,0,0,1,83.961,113.328Z" fill="#4d5e80"/>
      <path d="M46.125,113.328h35.75a0,0,0,0,1,0,0v4.919a8,8,0,0,1-8,8H54.125a8,8,0,0,1-8-8v-4.919A0,0,0,0,1,46.125,113.328Z" fill="#3d4566"/>
    </g>
    <g>
      <path d="M28.685,26.261A1.753,1.753,0,0,0,31,25.378a36.581,36.581,0,0,1,2.4-4.49,1.75,1.75,0,1,0-2.964-1.862A40.226,40.226,0,0,0,27.8,23.948,1.751,1.751,0,0,0,28.685,26.261Z"/>
      <path d="M103.547,39.544A39.232,39.232,0,0,0,39.772,8.625a1.75,1.75,0,0,0,2.173,2.744,35.917,35.917,0,1,1,40.4,59.2,1.752,1.752,0,0,0-.858,1.506V80.1H71.477V56.08h5.274a6.757,6.757,0,0,0,6.75-6.75v-.924a6.758,6.758,0,0,0-6.75-6.75H69.727a1.751,1.751,0,0,0-1.75,1.75V52.58H60.022V43.406a1.75,1.75,0,0,0-1.75-1.75H51.248a6.758,6.758,0,0,0-6.75,6.75v.924a6.758,6.758,0,0,0,6.75,6.75h5.274V80.1H46.51V72.175a1.928,1.928,0,0,0-.939-1.653A36.141,36.141,0,0,1,27.965,38.583a1.75,1.75,0,0,0-1.7-1.8,1.722,1.722,0,0,0-1.795,1.7A39.652,39.652,0,0,0,43.01,73.058v7.128a6.979,6.979,0,0,0-3.584,12.158,6.964,6.964,0,0,0,0,10.492,6.986,6.986,0,0,0,4.613,12.242h.336v3.169a9.761,9.761,0,0,0,9.75,9.75h19.75a9.761,9.761,0,0,0,9.75-9.75v-3.169h.336a6.987,6.987,0,0,0,4.613-12.242,6.966,6.966,0,0,0,0-10.492A6.98,6.98,0,0,0,84.99,80.186V73.059A39.761,39.761,0,0,0,103.547,39.544Zm-32.07,5.612h5.274A3.254,3.254,0,0,1,80,48.406v.924a3.254,3.254,0,0,1-3.25,3.25H71.477ZM51.248,52.58A3.254,3.254,0,0,1,48,49.33v-.924a3.254,3.254,0,0,1,3.25-3.25h5.274V52.58Zm8.774,3.5h7.955V80.1H60.022Zm20.1,62.167a6.257,6.257,0,0,1-6.25,6.25H54.125a6.257,6.257,0,0,1-6.25-6.25v-3.169h32.25ZM87.457,97.59a3.5,3.5,0,0,1-3.5,3.5H79.469a1.75,1.75,0,0,0,0,3.5h4.492a3.5,3.5,0,0,1,0,6.992H44.039a3.5,3.5,0,1,1,0-6.992h25.68a1.75,1.75,0,0,0,0-3.5H44.039a3.5,3.5,0,1,1,0-6.992H83.961A3.5,3.5,0,0,1,87.457,97.59Zm0-10.492a3.5,3.5,0,0,1-3.5,3.5H44.039a3.5,3.5,0,1,1,0-6.992H83.961A3.5,3.5,0,0,1,87.457,87.1Z"/>
      <path d="M85.641,25.1a1.75,1.75,0,0,0,2.906-1.952A29.589,29.589,0,0,0,64.314,10H64.3a1.75,1.75,0,0,0-.017,3.5A26.083,26.083,0,0,1,85.641,25.1Z"/>
    </g>
  </g>
</svg>
